<?xml version="1.0" encoding="utf-8"?>
<!-- Generator: Adobe Illustrator 24.3.0, SVG Export Plug-In . SVG Version: 6.00 Build 0)  -->
<svg version="1.1" id="admin-penal" xmlns="http://www.w3.org/2000/svg" xmlns:xlink="http://www.w3.org/1999/xlink" x="0px"
	 y="0px" viewBox="0 0 512 512" style="enable-background:new 0 0 512 512;" xml:space="preserve">
<style type="text/css">
	.st0{fill:#FFFFFF;}
</style>
<path class="st0" d="M440,381.6H72c-4.6,0-8.4,3.8-8.4,8.4s3.8,8.4,8.4,8.4H440c4.6,0,8.4-3.8,8.4-8.4S444.6,381.6,440,381.6z"/>
<path class="st0" d="M487.6,341.7h-16.8V107.5c0-18.6-14.4-33.7-32.2-33.7H80.1c-21.5,0-38.9,18.3-38.9,40.8v227.1H24.4
	c-4.6,0-8.4,3.8-8.4,8.4v41.7c0,25.6,20.8,46.3,46.3,46.3h387.3c25.5,0,46.3-20.8,46.3-46.3v-41.7
	C496,345.5,492.2,341.7,487.6,341.7z M58,114.6c0-13.2,9.9-24,22.1-24h358.5c8.5,0,15.4,7.6,15.4,16.8v234.3H211.8v-54.6
	c0-35.3-28.8-64.1-64.1-64.1c-35.4,0-64.1,28.8-64.1,64.1v54.6H58V114.6z M100.4,341.5v-54.3c0-26.1,21.2-47.3,47.3-47.3
	S195,261,195,287.1v54.3L100.4,341.5L100.4,341.5z M479.2,391.8c0,16.3-13.2,29.5-29.5,29.5H62.3c-16.3,0-29.5-13.2-29.5-29.5v-33.3
	h16.8h412.8h16.8L479.2,391.8L479.2,391.8z"/>
<path class="st0" d="M147.7,199.3c24.6,0,44.6-20,44.6-44.6c0-24.6-20-44.6-44.6-44.6s-44.6,20-44.6,44.6
	C103.1,179.3,123.1,199.3,147.7,199.3z M147.7,126.9c15.3,0,27.8,12.4,27.8,27.8s-12.5,27.8-27.8,27.8s-27.8-12.5-27.8-27.8
	S132.4,126.9,147.7,126.9z M258.1,231.6h106.1c3.7,13.9,16.5,24.2,31.5,24.2c18,0,32.6-14.7,32.6-32.7s-14.6-32.7-32.6-32.7
	c-15.1,0-27.8,10.3-31.5,24.2H258.1c-4.6,0-8.4,3.8-8.4,8.4S253.5,231.6,258.1,231.6z M395.8,207.4c8.7,0,15.8,7.1,15.8,15.8
	s-7.1,15.8-15.8,15.8s-15.8-7.1-15.8-15.8C379.9,214.5,387,207.4,395.8,207.4z M282.3,191.6c15.1,0,27.8-10.3,31.5-24.2H420
	c4.6,0,8.4-3.8,8.4-8.4s-3.8-8.4-8.4-8.4H313.9c-3.7-13.9-16.5-24.2-31.5-24.2c-18,0-32.6,14.7-32.6,32.7S264.3,191.6,282.3,191.6z
	 M282.3,143.1c8.7,0,15.8,7.1,15.8,15.8s-7.1,15.8-15.8,15.8s-15.8-7.1-15.8-15.8S273.6,143.1,282.3,143.1z M282.3,320.2
	c15.1,0,27.8-10.3,31.5-24.2H420c4.6,0,8.4-3.8,8.4-8.4s-3.8-8.4-8.4-8.4H313.9c-3.7-13.9-16.5-24.2-31.5-24.2
	c-18,0-32.6,14.7-32.6,32.7S264.3,320.2,282.3,320.2z M282.3,271.7c8.7,0,15.8,7.1,15.8,15.8s-7.1,15.8-15.8,15.8
	s-15.8-7.1-15.8-15.8S273.6,271.7,282.3,271.7z"/>
</svg>
